<?xml version="1.0" encoding="UTF-8"?><svg id="Layer_1" xmlns="http://www.w3.org/2000/svg" viewBox="0 0 258.42 228.97"><defs><style>.cls-1{fill-rule:evenodd;}.cls-1,.cls-2{fill:#1d1d1b;}</style></defs><path class="cls-1" d="M180.32,214.74c-3.26-.52-6.16-.68-6.16-2.42,0-.68.4-1.39,1.03-1.87.56-.44,2.03-.6,3.02-.6s2.07.52,2.7,1.19c.4.48.87,1.23.95,2.03h5.29c-.12-1.95-.95-3.86-2.46-4.93-1.47-1.07-3.38-2.39-6-2.39s-4.97.08-6.68,1.35c-1.71,1.23-2.94,3.3-2.94,5.09,0,1.03-.08,2.26.32,3.02.44.76,1.71,2.31,2.7,2.9,1.39.79,4.65,1.11,6.44,1.59,1.47.36,3.26.44,3.66,1.91.24.87-.04,1.67-.83,2.19-.76.52-1.91.87-3.18.87s-2.58-.4-3.22-1.19c-.56-.76-.87-1.47-1.31-2.62h-5.28c.12,2.42,1.47,4.81,3.14,6.16,1.63,1.31,3.81,1.95,6.6,1.95s5.21-.48,7-1.75c1.75-1.27,2.7-3.66,2.7-5.6,0-1.67-.48-2.98-1.23-4.01-1.55-2.03-4.33-2.58-6.24-2.86"/><rect class="cls-2" x="111.4" y="206.07" width="5.37" height="22.26"/><rect class="cls-2" x="111.4" y="199.2" width="5.41" height="5.37"/><path class="cls-1" d="M96.3,224.08h-.04c-3.66,0-6.64-2.98-6.64-6.64s2.98-6.64,6.64-6.64h.04c3.62,0,6.64,2.98,6.64,6.64s-3.02,6.64-6.64,6.64M103.57,209.01c-1.99-1.55-4.53-2.62-7.31-2.7h-.28c-6.16,0-11.17,5.01-11.17,11.13s5.01,11.21,11.17,11.21h.28c2.78-.04,5.32-1.15,7.27-3.06l.04,2.74h5.09v-29.13h-5.09v9.82Z"/><path class="cls-1" d="M129.57,224.04c-3.66,0-6.68-3.02-6.68-6.68s3.02-6.6,6.68-6.6,6.68,2.98,6.68,6.6-3.02,6.68-6.68,6.68M136.88,208.93c-1.99-1.55-4.53-2.62-7.31-2.7h-.28c-6.16,0-11.21,5.05-11.21,11.17s5.05,11.21,11.21,11.21h.28c2.78-.08,5.29-1.19,7.27-3.1v2.74h5.09v-29.09h-5.09l.04,9.78Z"/><path class="cls-1" d="M71.02,223.72h-.04c-3.66,0-6.6-2.94-6.6-6.6s2.94-6.6,6.6-6.6h.04c3.62,0,6.6,2.98,6.6,6.6s-2.98,6.6-6.6,6.6M77.66,206.07v2.11c-1.03-1.11-1.51-1.47-2.7-1.91-1.07-.4-2.54-.75-3.97-.79h-.24c-1.71,0-3.22.28-4.57.83-1.31.56-2.54,1.43-3.66,2.62-.99,1.03-1.79,2.31-2.38,3.7-.52,1.39-.8,2.82-.8,4.37,0,3.38,1.11,6.2,3.34,8.39,2.19,2.22,4.97,3.38,8.31,3.38h.04c1.35,0,2.82-.4,4.01-.83,1.19-.44,2.07-.8,2.62-1.59v2.03l5.17-.04-.04-22.3-5.13.04Z"/><path class="cls-1" d="M155.32,223.68c-3.66-.04-6.64-2.98-6.64-6.64s2.98-6.56,6.64-6.6c3.66,0,6.64,2.98,6.64,6.6s-2.98,6.64-6.64,6.64M161.96,205.99l.04,2.11c-1.03-1.07-1.55-1.43-2.7-1.91-1.11-.4-2.54-.71-3.97-.75h-.24c-1.71,0-3.22.28-4.57.79-1.35.56-2.58,1.47-3.66,2.62-1.03,1.03-1.83,2.3-2.38,3.74-.52,1.35-.83,2.82-.83,4.37,0,3.34,1.15,6.16,3.38,8.39,2.15,2.19,4.97,3.34,8.31,3.34,1.39,0,2.86-.36,4.01-.83,1.19-.44,2.11-.8,2.66-1.59v2.03l5.17-.04-.08-22.26h-5.13Z"/><path class="cls-1" d="M244.82,99.36l-72.97.04c20.15-28.34,49.08-44.36,86.56-50.04-2.35,18.96-6.72,35.05-13.59,50M157.59,99.44h-58.86c-1.31-37.88,9.18-76.31,29.45-99.44,20.59,22.54,31.24,60.81,29.41,99.44ZM84.26,99.32l-71.58.04C6.12,84.22,1.99,68.6,0,49.2c36.88,6.56,65.34,21.7,84.26,50.12ZM230.95,127.22l-205,.08c-2.74-3.82-5.88-9.18-7.83-13.43h220.66c-2.07,4.77-4.85,9.18-7.83,13.35ZM207.31,153.06l-158.62-.08c-5.28-4.21-8.86-6.4-13.11-12h185.05c-4.13,4.53-8.86,8.62-13.31,12.08ZM140.26,164.1l-24.92.04c3.5,7.27,7.95,13.39,13.04,19.24,5.01-5.96,8.35-12.12,11.88-19.28ZM145.46,164.18l-2.7,16.61c18.12-3.34,34.1-8.58,47.97-16.61h-45.27ZM110.89,164.14h-45.35c13.55,8.39,29.41,13.95,47.46,17.69l-2.11-17.69Z"/></svg>