<?xml version="1.0" encoding="UTF-8"?><svg id="Layer_1" xmlns="http://www.w3.org/2000/svg" viewBox="0 0 705.64 97.09"><defs><style>.cls-1{fill:#231f20;fill-rule:evenodd;}</style></defs><path class="cls-1" d="M153.77,0h-56.59c-9.88,0-17.9,8-17.9,17.88v61.08c0,9.87,8.01,17.88,17.9,17.88h56.59c9.88,0,17.9-8,17.9-17.88V17.88c0-9.87-8.01-17.88-17.9-17.88h0ZM144.33,56.28l12.84,37.87-30.65-23.8-29.62,23.59,11.81-36.83-27.34-20.69h33.97L126.1,2.69l11.39,33.73h31.9l-25.06,19.86h0Z"/><path class="cls-1" d="M373.67,97.08c-11.53,0-20.88-9.34-20.88-20.86V22.83c0-11.52,9.35-20.86,20.88-20.86h51.62v25.59h-44.95v9.17h44.95v25.59h-44.95v9.17h44.95v25.59h-51.62Z"/><path class="cls-1" d="M258.51,22.83c0-11.52-9.35-20.86-20.88-20.86h-56.93v95.12h27.55V27.56h22.72v69.53h27.55V22.83h0Z"/><path class="cls-1" d="M20.88,97.09c-11.53,0-20.88-9.34-20.88-20.86V22.82C0,11.3,9.35,1.96,20.88,1.96h50.65v25.59H27.55v43.94h43.98v25.59H20.88Z"/><polygon class="cls-1" points="257.32 1.96 285.84 1.96 304.69 59.91 324.02 1.96 352.54 1.96 320.64 97.09 288.74 97.09 257.32 1.96 257.32 1.96"/><path class="cls-1" d="M578.2,97.08c11.53,0,20.88-9.34,20.88-20.86v-18.64c0-11.52-9.35-20.86-20.88-20.86h-28.9v-9.18h46.4V1.97h-53.07c-11.53,0-20.88,9.34-20.88,20.86v18.63c0,11.52,9.35,20.86,20.88,20.86h29.38v9.18h-50.27v25.59h56.45Z"/><path class="cls-1" d="M679.8,97.09h-51.62c-11.53,0-20.88-9.34-20.88-20.86V22.83c0-11.52,9.35-20.86,20.88-20.86h51.62v25.59h-44.95v9.17h44.95v25.59h-44.95v9.17h44.95v25.59h0Z"/><path class="cls-1" d="M498.57,60.97c7.88-2.98,13.49-10.59,13.49-19.51v-18.63c0-11.52-9.35-20.86-20.88-20.86h-55.97v95.12h27.55v-54.08l24.65,54.08h28.03l-16.88-36.11h0ZM485.48,36.66h-22.72v-9.17h22.72v9.17h0Z"/><path class="cls-1" d="M702.89,6.2c-1.84-1.83-4.06-2.74-6.66-2.74s-4.8.91-6.63,2.74c-1.84,1.83-2.76,4.05-2.76,6.63s.91,4.84,2.73,6.67c1.83,1.84,4.04,2.77,6.65,2.77s4.83-.92,6.66-2.77,2.76-4.07,2.76-6.67-.92-4.8-2.76-6.63h0ZM701.95,18.59c-1.57,1.59-3.48,2.38-5.73,2.38s-4.16-.79-5.73-2.38c-1.56-1.59-2.35-3.51-2.35-5.76s.79-4.14,2.36-5.72c1.58-1.59,3.49-2.38,5.72-2.38s4.15.79,5.73,2.38c1.57,1.58,2.36,3.49,2.36,5.72s-.79,4.17-2.36,5.76h0Z"/><path class="cls-1" d="M700.41,17.84c-.04-.09-.07-.27-.09-.54-.02-.27-.03-.53-.03-.77v-.76c0-.52-.19-1.05-.56-1.6-.38-.55-.97-.88-1.78-1.01.64-.1,1.14-.27,1.5-.5.67-.44,1.01-1.11,1.01-2.04,0-1.3-.53-2.17-1.6-2.61-.6-.25-1.54-.37-2.82-.37h-3.61v10.32h1.82v-4.07h1.44c.97,0,1.64.11,2.03.33.65.38.97,1.17.97,2.37v.82l.04.33s.02.08.03.12c0,.03.02.07.03.1h1.7l-.06-.13h0ZM697.62,12.39c-.38.15-.96.23-1.73.23h-1.64v-3.74h1.55c1.01,0,1.74.13,2.2.38.46.26.69.76.69,1.51,0,.79-.35,1.33-1.06,1.61h0Z"/></svg>