<?xml version="1.0" encoding="UTF-8"?><svg id="Layer_1" xmlns="http://www.w3.org/2000/svg" viewBox="0 0 308.72 161.06"><defs><style>.cls-1{fill:#231f20;}</style></defs><path class="cls-1" d="M38.76,55.61s-7.96,15.05-7.96,28.08c0,0-.72,30.69,30.98,30.69h4.34s6.37,2.03,116.09-30.69h-27.79l-1.45-34.45-13.03,34.45h-19.98L151.52.03h19.11l-8.69,24.03L182.5.03h60.22l-5.21,13.9h-20.55l-6.37,17.66h19.11l-6.08,15.63h-18.82l-7.53,20.55h22.58l-1.74,6.08s81.93-21.13,90.61-23.45c0,0-233.5,110.65-271.71,110.65,0,0-36.9.23-36.9-29.88,0,0-4.2-28.08,38.65-75.56ZM173.81,77.91L201.8,2.25l-29.72,31.65,1.74,44.01ZM128.07.03l-31.07,83.67h19.3L147.57.03h-19.49ZM41.61,83.7h19.3l13.9-36.48-1.54,36.48h20.46L124.99.03h-19.11l-14.28,36.96L93.91.03h-20.65l-31.65,83.67ZM56.12,102.98c0,.74-.19,1.43-.55,2.07-.37.64-.87,1.14-1.51,1.51-.64.37-1.33.55-2.07.55s-1.42-.18-2.06-.55c-.64-.37-1.14-.87-1.51-1.51-.37-.64-.55-1.33-.55-2.07s.19-1.43.55-2.07c.37-.64.87-1.14,1.51-1.51.64-.37,1.33-.55,2.06-.55s1.43.18,2.07.55c.64.37,1.14.87,1.51,1.51.37.64.55,1.33.55,2.07ZM55.32,102.98c0-.92-.33-1.71-.98-2.36-.65-.65-1.43-.98-2.35-.98s-1.7.32-2.35.98c-.65.65-.98,1.44-.98,2.36s.33,1.71.98,2.36c.65.65,1.44.98,2.35.98s1.7-.33,2.35-.98c.65-.65.98-1.44.98-2.36ZM50.11,100.77h1.97c.56,0,.96.11,1.21.34.25.23.38.53.38.91,0,.3-.09.55-.29.77-.19.22-.49.37-.9.47.17.07.3.13.38.21.11.1.23.25.35.45,0,.02.25.44.72,1.28h-1.3c-.42-.84-.71-1.34-.85-1.51-.14-.16-.29-.25-.43-.25-.03,0-.08,0-.13.02v1.74h-1.09v-4.42ZM51.21,102.65h.48c.32,0,.54-.05.67-.16.13-.1.2-.24.2-.4s-.06-.3-.19-.4c-.13-.11-.34-.16-.64-.16h-.52v1.11ZM255.07,4.13c0,.74-.18,1.43-.55,2.07-.37.64-.87,1.14-1.51,1.51-.64.37-1.33.55-2.07.55s-1.42-.18-2.06-.55c-.64-.37-1.14-.87-1.51-1.51-.37-.64-.56-1.33-.56-2.07s.19-1.43.56-2.07c.37-.64.87-1.14,1.51-1.51.64-.37,1.33-.55,2.06-.55s1.43.18,2.07.55c.64.37,1.14.87,1.51,1.51.37.64.55,1.33.55,2.07ZM254.27,4.13c0-.92-.33-1.71-.97-2.36-.65-.65-1.44-.98-2.36-.98s-1.7.33-2.35.98c-.65.65-.97,1.44-.97,2.36s.32,1.71.97,2.36c.65.65,1.44.98,2.35.98s1.71-.33,2.36-.98c.65-.65.97-1.44.97-2.36ZM249.06,1.92h1.97c.56,0,.96.11,1.21.34.25.23.38.53.38.91,0,.3-.1.55-.29.77-.19.22-.49.37-.9.47.17.07.29.13.37.21.11.1.23.25.35.45,0,.01.25.44.72,1.28h-1.3c-.42-.84-.71-1.34-.85-1.51-.14-.16-.29-.24-.43-.24-.03,0-.08,0-.13.01v1.74h-1.1V1.92ZM250.16,3.8h.48c.32,0,.54-.05.68-.16.13-.1.2-.24.2-.4s-.06-.3-.19-.4c-.13-.1-.34-.15-.64-.15h-.52v1.11Z"/></svg>