<svg id="Layer_1" data-name="Layer 1" xmlns="http://www.w3.org/2000/svg" viewBox="0 0 73.5 46.5"><title>Onitsuka Tiger logo - Brandlogos.net</title><path d="M241.1,277.8l1.1.3c1,.3,1.2.4,1.2.8s-.3.4-.7.4a2.4,2.4,0,0,1-1.7-.8h-1.7V281h1.8v-.9a3.8,3.8,0,0,0,2.6,1c1.8,0,3.2-1.1,3.2-2.6a2.62,2.62,0,0,0-2-2.5l-1.9-.7c-.2-.1-.4-.3-.4-.4,0-.3.3-.4.8-.4a1.3,1.3,0,0,1,1.2.8h1.8v-2.4h-1.7v.8a4,4,0,0,0-2.6-1,2.74,2.74,0,0,0-2.9,2.7A2.44,2.44,0,0,0,241.1,277.8Z" transform="translate(-204 -269)" style="fill:#212322"/><path d="M247.6,275.3v3.5a2.29,2.29,0,0,0,2.5,2.4,3.06,3.06,0,0,0,2.8-1.9V281h3.9v-1.7a.53.53,0,0,1-.6-.6v-5.8h-4.1v1.7c.5,0,.7.2.7.7v2.4a.9.9,0,0,1-1.8,0v-4.8h-4.2v1.7C247.4,274.6,247.6,274.8,247.6,275.3Z" transform="translate(-204 -269)" style="fill:#212322"/><path d="M262.4,279.3a.53.53,0,0,1-.6-.6v-1.3l2.6,3.6h3.1v-1.7a1,1,0,0,1-.7-.5l-1.7-2.3,1.1-1a2.38,2.38,0,0,1,1.3-.8v-1.8h-4.6v1.7h1.2l-2.3,2.1V269h-4.1v1.7a.53.53,0,0,1,.6.6v7.4a.53.53,0,0,1-.6.6V281h4.7Z" transform="translate(-204 -269)" style="fill:#212322"/><path d="M276.8,278.6v-2.3c0-2.3-1.7-3.6-4.5-3.6a8.89,8.89,0,0,0-3.6.7l.4,1.9a6.83,6.83,0,0,1,2.2-.5c1.2,0,2,.4,2,1.4v.4a4.28,4.28,0,0,0-2.2-.6c-1.9,0-3.3,1.1-3.3,2.6s1.4,2.6,3.3,2.6c1.7,0,2.6-.5,3-1.7V281h3.4v-1.7A.63.63,0,0,1,276.8,278.6Zm-4.1.6h-.5a.8.8,0,1,1,0-1.6h.5a.79.79,0,0,1,.8.8A.74.74,0,0,1,272.7,279.2Z" transform="translate(-204 -269)" style="fill:#212322"/><path d="M232.7,279.3c-.5,0-.7-.2-.7-.7v-5.7h-4.2v1.7c.5,0,.7.2.7.7v3.3c0,.5-.2.7-.7.7V281h4.9Z" transform="translate(-204 -269)" style="fill:#212322"/><path d="M210,281.4a6.1,6.1,0,1,0-6-6.1A5.86,5.86,0,0,0,210,281.4Zm-1.2-8.7a1.2,1.2,0,1,1,2.4,0v5.2a1.2,1.2,0,0,1-2.4,0Z" transform="translate(-204 -269)" style="fill:#212322"/><path d="M221.9,279.3c-.5,0-.7-.2-.7-.7v-2.5a.9.9,0,0,1,1.8,0V281h4.2v-1.7c-.5,0-.7-.2-.7-.7v-3.5a2.29,2.29,0,0,0-2.5-2.4,3.06,3.06,0,0,0-2.8,1.9v-1.7h-4v1.7c.5,0,.7.2.7.7v3.3c0,.5-.2.7-.7.7V281h4.9v-1.7Z" transform="translate(-204 -269)" style="fill:#212322"/><path d="M233.7,281h4.9v-1.7h-.2c-.9,0-1.2-.4-1.2-1.2v-3.4h1.5v-1.8h-1.5v-2.8h-3.3v1.7a1,1,0,0,1-1.1,1.1v1.7h1l-.1,6.4Z" transform="translate(-204 -269)" style="fill:#212322"/><rect x="24.5" y="0.2" width="3.4" height="2.7" style="fill:#212322"/><path d="M218.2,301.4c2.2-1.1,2.4-6.6,2.4-6.6l-2.4.4C215.7,300,218.2,301.4,218.2,301.4Z" transform="translate(-204 -269)" style="fill:#212322"/><path d="M240.8,302.1c1-.8-.2-2.2-.2-2.2l-2,1.7A1.65,1.65,0,0,0,240.8,302.1Z" transform="translate(-204 -269)" style="fill:#212322"/><path d="M240,299.5c.7.3.5-.8.7-1.4a3.09,3.09,0,0,1,1.1-1.6c.4-.3.2-.6-.1-.6s-1.1-.4-1.5-.1a2.8,2.8,0,0,0-.9,1.3C239,297.7,239,299.1,240,299.5Z" transform="translate(-204 -269)" style="fill:#212322"/><path d="M251.4,294.7a3.5,3.5,0,0,0,.2-1.9c-.3-1-1.2-.7-1.7.6s-.1,1.6-.1,1.6A11.63,11.63,0,0,0,251.4,294.7Z" transform="translate(-204 -269)" style="fill:#212322"/><path d="M204.3,305.1a6,6,0,0,0,6,6h21.8c.7,0,3.5.2,8.8,4.4,5.3-4.2,8.1-4.4,8.8-4.4h21.8a6,6,0,0,0,6-6V282.3H204.3Zm27.7-1.3c-2,.7-2.2-.8-2.1-1.3s.4-2.6.7-3.8-.2-1.5-.2-1.5c-.2-.2.4-.5.7-.8.5-.7.7-1.1,1.6-.9a1.4,1.4,0,0,1,1.1,1.8c-.1,1-.6,3.1-.8,4.1s1.4.3,1.4.3A4,4,0,0,1,232,303.8Zm24.2-8c.1-.8.5-2.5.7-3.4s-.3-1.2-.3-1.2a1,1,0,0,1,.5-.7,11.15,11.15,0,0,0,1-.9,2.84,2.84,0,0,1,2.1.9c.4-.1,2.5-1.6,2.9-1.8s.5-.1,1,.1a6.23,6.23,0,0,0,2.1.3,14.78,14.78,0,0,1,1.6.1c-.2.5-1.4,1.2-2.2,1.8s-2.3-.1-3.1-.4-1.1.1-1.7.5a1.14,1.14,0,0,0-.5.8s-.3,1.7-.4,2.3.4.8.8.8a12.38,12.38,0,0,0,1.9-.5c-2.3,3.1-4.1,3.6-5.3,3.3S256.1,296.5,256.2,295.8Zm-7.4-3.8a4.89,4.89,0,0,1,4.6-.7c.5.3,1.6.9,1,3.6l-5,1.1s-.5,1.2.1,1.7,1.6.5,3.5-.4a4.71,4.71,0,0,1-2.9,2.4c-2.2.7-3.4-.5-3.5-2S246.7,293.5,248.8,292Zm-11.7,4.8c1-2,3.5-3,3.9-3.2a.72.72,0,0,1,.7,0,4.91,4.91,0,0,0,2.6.2c.6.1.7.1.2,1.1a26.43,26.43,0,0,0-1.3,5c-.1.7.2,4-2.9,5s-4.5-.8-4.5-.8L238,302A4.42,4.42,0,0,1,237.1,296.8Zm-1.8-4.1-2.3,1.6s-1.5-.9-1.9-1.1a8.75,8.75,0,0,1,2-1.6S234.4,292.2,235.3,292.7Zm-20.8,5a7.83,7.83,0,0,1,4.8-4.5,7.92,7.92,0,0,0-.6,1l6.4-1.2s-.6,3.3-1.2,5.4-4.4,4-4.4,4a6.37,6.37,0,0,0,4.6.8l2.6-11.8c-1.3.2-4,.3-6.6.4a13.94,13.94,0,0,0-4.8,1.2c.8-4.1,4.3-4.6,8.6-4.8a42.5,42.5,0,0,0,8.3-1.2,6.26,6.26,0,0,1-4.3,4.2l-2.4,11.6c1.3-.3,2.3-.6,2.3-.6-3.1,4.1-6.9,4.4-9.3,3.5A6.14,6.14,0,0,1,214.5,297.7Z" transform="translate(-204 -269)" style="fill:#212322"/></svg>